<svg width="1200" height="620" viewBox="0 0 1200 620" xmlns="http://www.w3.org/2000/svg">
  <defs>
    <linearGradient id="sky2" x1="0" y1="0" x2="0" y2="1">
      <stop offset="0%" stop-color="#7EC8F3"/>
      <stop offset="100%" stop-color="#EAF7FD"/>
    </linearGradient>
    <linearGradient id="wave1b" x1="0" y1="0" x2="1" y2="1">
      <stop offset="0%" stop-color="#0E5C73"/>
      <stop offset="100%" stop-color="#1D8CA0"/>
    </linearGradient>
    <linearGradient id="wave2b" x1="0" y1="0" x2="1" y2="1">
      <stop offset="0%" stop-color="#1D8CA0"/>
      <stop offset="100%" stop-color="#3FC6C9"/>
    </linearGradient>
    <linearGradient id="hullb" x1="0" y1="0" x2="0" y2="1">
      <stop offset="0%" stop-color="#1B4A73"/>
      <stop offset="100%" stop-color="#0D2740"/>
    </linearGradient>
    <linearGradient id="wordGrad" x1="0" y1="0" x2="1" y2="0">
      <stop offset="0%" stop-color="#0D2740"/>
      <stop offset="100%" stop-color="#1D8CA0"/>
    </linearGradient>
    <clipPath id="circleClip">
      <circle cx="600" cy="230" r="230"/>
    </clipPath>
  </defs>

  <rect width="1200" height="620" fill="#FFFFFF"/>

  <g clip-path="url(#circleClip)">
    <rect x="370" y="0" width="460" height="460" fill="url(#sky2)"/>

    <circle cx="740" cy="150" r="70" fill="#F5C542"/>

    <ellipse cx="470" cy="260" rx="100" ry="34" fill="#4CAE7C"/>
    <path d="M470 260 Q450 190 475 110" stroke="#5B3A22" stroke-width="11" fill="none" stroke-linecap="round"/>
    <g fill="#3E9C6D">
      <path d="M475 110 Q410 84 384 34 Q454 40 490 96 Z"/>
      <path d="M475 110 Q424 134 390 184 Q444 164 480 118 Z"/>
      <path d="M475 110 Q485 54 458 6 Q512 38 496 104 Z"/>
      <path d="M475 110 Q534 98 574 52 Q548 112 490 126 Z"/>
      <path d="M475 110 Q542 134 574 180 Q502 168 478 122 Z"/>
    </g>

    <g stroke="#173A5E" stroke-width="7" fill="none" stroke-linecap="round">
      <path d="M600 90 q13 -13 26 0 q13 -13 26 0"/>
      <path d="M650 50 q12 -12 24 0 q12 -12 24 0"/>
    </g>

    <path d="M660 250 L660 90 L708 158 Q686 190 660 202 Z" fill="#0D2740"/>
    <path d="M646 250 Q649 138 660 100 Q612 138 604 202 Q600 230 613 250 Z" fill="url(#hullb)"/>
    <path d="M560 250 L790 250 L762 302 Q676 322 604 302 Z" fill="url(#hullb)"/>
    <rect x="560" y="247" width="230" height="9" rx="4" fill="#E9F3F7"/>

    <path d="M370 300 Q470 250 570 300 Q670 350 770 300 Q800 288 830 300 L830 460 L370 460 Z" fill="url(#wave1b)"/>
    <path d="M370 350 Q480 310 610 350 Q720 390 830 350 L830 460 L370 460 Z" fill="url(#wave2b)"/>
  </g>

  <text x="230" y="560" font-family="Arial, Helvetica, sans-serif" font-size="88" font-weight="800">
    <tspan fill="#0D2740">zarpe</tspan><tspan fill="#1D8CA0">Island</tspan>
  </text>
  <text x="270" y="600" font-family="Arial, Helvetica, sans-serif" font-size="22" letter-spacing="3" fill="#3F6B82">SMOOTH SAILING, EVERY DAY.</text>
</svg>
